<?xml version="1.0" encoding="UTF-8"?><svg xmlns="http://www.w3.org/2000/svg" xmlns:xlink="http://www.w3.org/1999/xlink" fill-opacity="1" color-rendering="auto" color-interpolation="auto" text-rendering="auto" stroke="black" stroke-linecap="square" width="844" stroke-miterlimit="10" shape-rendering="auto" stroke-opacity="1" fill="black" stroke-dasharray="none" font-weight="normal" stroke-width="1" height="1042" font-family="'Dialog'" font-style="normal" stroke-linejoin="miter" font-size="12px" stroke-dashoffset="0" image-rendering="auto">
  <!--Generated by ySVG 2.5-->
  <defs id="genericDefs"/>
  <g>
    <g fill="white" text-rendering="geometricPrecision" shape-rendering="geometricPrecision" transform="translate(-40,921)" stroke="white">
      <rect x="40" width="844" height="1042" y="-921" clip-path="url(#clipPath2)" stroke="none"/>
    </g>
    <g fill="rgb(255,204,0)" text-rendering="geometricPrecision" shape-rendering="geometricPrecision" transform="matrix(1,0,0,1,-40,921)" stroke="rgb(255,204,0)">
      <rect x="465" width="263" height="76" y="-488" clip-path="url(#clipPath2)" stroke="none"/>
      <rect x="464" y="-489" clip-path="url(#clipPath2)" fill="yellow" width="1" height="78" stroke="none"/>
      <rect x="465" y="-489" clip-path="url(#clipPath2)" fill="yellow" width="263" height="1" stroke="none"/>
      <rect x="465" y="-412" clip-path="url(#clipPath2)" fill="rgb(178,142,0)" width="264" height="1" stroke="none"/>
      <rect x="728" y="-489" clip-path="url(#clipPath2)" fill="rgb(178,142,0)" width="1" height="77" stroke="none"/>
    </g>
    <g text-rendering="geometricPrecision" stroke-miterlimit="1.45" shape-rendering="geometricPrecision" font-family="sans-serif" transform="matrix(1,0,0,1,-40,921)" stroke-linecap="butt">
      <text x="543.9606" xml:space="preserve" y="-473.377" clip-path="url(#clipPath3)" stroke="none">&lt;&lt;application&gt;&gt;</text>
      <text x="571.4745" font-size="13px" y="-449.48" clip-path="url(#clipPath3)" stroke="none" font-weight="bold" xml:space="preserve">otu.lea</text>
    </g>
    <g fill="rgb(255,255,153)" text-rendering="geometricPrecision" shape-rendering="geometricPrecision" transform="matrix(1,0,0,1,-40,921)" stroke="rgb(255,255,153)">
      <rect x="554" width="263" height="76" y="-280" clip-path="url(#clipPath2)" stroke="none"/>
      <rect x="553" y="-281" clip-path="url(#clipPath2)" fill="rgb(255,255,218)" width="1" height="78" stroke="none"/>
      <rect x="554" y="-281" clip-path="url(#clipPath2)" fill="rgb(255,255,218)" width="263" height="1" stroke="none"/>
      <rect x="554" y="-204" clip-path="url(#clipPath2)" fill="rgb(178,178,107)" width="264" height="1" stroke="none"/>
      <rect x="817" y="-281" clip-path="url(#clipPath2)" fill="rgb(178,178,107)" width="1" height="77" stroke="none"/>
    </g>
    <g text-rendering="geometricPrecision" stroke-miterlimit="1.45" shape-rendering="geometricPrecision" font-family="sans-serif" transform="matrix(1,0,0,1,-40,921)" stroke-linecap="butt">
      <text x="643.8984" xml:space="preserve" y="-265.377" clip-path="url(#clipPath4)" stroke="none">&lt;&lt;service&gt;&gt;</text>
      <text x="620.9983" font-size="13px" y="-241.48" clip-path="url(#clipPath4)" stroke="none" font-weight="bold" xml:space="preserve">leaonline-content</text>
    </g>
    <g fill="rgb(255,255,153)" text-rendering="geometricPrecision" shape-rendering="geometricPrecision" transform="matrix(1,0,0,1,-40,921)" stroke="rgb(255,255,153)">
      <rect x="333" width="263" height="76" y="-675" clip-path="url(#clipPath2)" stroke="none"/>
      <rect x="332" y="-676" clip-path="url(#clipPath2)" fill="rgb(255,255,218)" width="1" height="78" stroke="none"/>
      <rect x="333" y="-676" clip-path="url(#clipPath2)" fill="rgb(255,255,218)" width="263" height="1" stroke="none"/>
      <rect x="333" y="-599" clip-path="url(#clipPath2)" fill="rgb(178,178,107)" width="264" height="1" stroke="none"/>
      <rect x="596" y="-676" clip-path="url(#clipPath2)" fill="rgb(178,178,107)" width="1" height="77" stroke="none"/>
    </g>
    <g text-rendering="geometricPrecision" stroke-miterlimit="1.45" shape-rendering="geometricPrecision" font-family="sans-serif" transform="matrix(1,0,0,1,-40,921)" stroke-linecap="butt">
      <text x="423.0651" xml:space="preserve" y="-660.127" clip-path="url(#clipPath5)" stroke="none">&lt;&lt;service&gt;&gt;</text>
      <text x="397.1562" font-size="13px" y="-636.23" clip-path="url(#clipPath5)" stroke="none" font-weight="bold" xml:space="preserve">leaonline-sessions</text>
    </g>
    <g fill="rgb(255,204,0)" text-rendering="geometricPrecision" shape-rendering="geometricPrecision" transform="matrix(1,0,0,1,-40,921)" stroke="rgb(255,204,0)">
      <rect x="371" width="263" height="76" y="-121" clip-path="url(#clipPath2)" stroke="none"/>
      <rect x="370" y="-122" clip-path="url(#clipPath2)" fill="yellow" width="1" height="78" stroke="none"/>
      <rect x="371" y="-122" clip-path="url(#clipPath2)" fill="yellow" width="263" height="1" stroke="none"/>
      <rect x="371" y="-45" clip-path="url(#clipPath2)" fill="rgb(178,142,0)" width="264" height="1" stroke="none"/>
      <rect x="634" y="-122" clip-path="url(#clipPath2)" fill="rgb(178,142,0)" width="1" height="77" stroke="none"/>
    </g>
    <g text-rendering="geometricPrecision" stroke-miterlimit="1.45" shape-rendering="geometricPrecision" font-family="sans-serif" transform="matrix(1,0,0,1,-40,921)" stroke-linecap="butt">
      <text x="449.2939" xml:space="preserve" y="-106.2441" clip-path="url(#clipPath6)" stroke="none">&lt;&lt;application&gt;&gt;</text>
      <text x="471.5964" font-size="13px" y="-82.3472" clip-path="url(#clipPath6)" stroke="none" font-weight="bold" xml:space="preserve">backend</text>
    </g>
    <g fill="rgb(255,204,0)" text-rendering="geometricPrecision" shape-rendering="geometricPrecision" transform="matrix(1,0,0,1,-40,921)" stroke="rgb(255,204,0)">
      <rect x="150" width="263" height="76" y="-488" clip-path="url(#clipPath2)" stroke="none"/>
      <rect x="149" y="-489" clip-path="url(#clipPath2)" fill="yellow" width="1" height="78" stroke="none"/>
      <rect x="150" y="-489" clip-path="url(#clipPath2)" fill="yellow" width="263" height="1" stroke="none"/>
      <rect x="150" y="-412" clip-path="url(#clipPath2)" fill="rgb(178,142,0)" width="264" height="1" stroke="none"/>
      <rect x="413" y="-489" clip-path="url(#clipPath2)" fill="rgb(178,142,0)" width="1" height="77" stroke="none"/>
    </g>
    <g text-rendering="geometricPrecision" stroke-miterlimit="1.45" shape-rendering="geometricPrecision" font-family="sans-serif" transform="matrix(1,0,0,1,-40,921)" stroke-linecap="butt">
      <text x="228.9606" xml:space="preserve" y="-473.377" clip-path="url(#clipPath7)" stroke="none">&lt;&lt;application&gt;&gt;</text>
      <text x="254.9828" font-size="13px" y="-449.48" clip-path="url(#clipPath7)" stroke="none" font-weight="bold" xml:space="preserve">lea.app</text>
    </g>
    <g fill="rgb(255,204,0)" text-rendering="geometricPrecision" shape-rendering="geometricPrecision" transform="matrix(1,0,0,1,-40,921)" stroke="rgb(255,204,0)">
      <rect x="56" width="263" height="76" y="-904" clip-path="url(#clipPath2)" stroke="none"/>
      <rect x="55" y="-905" clip-path="url(#clipPath2)" fill="yellow" width="1" height="78" stroke="none"/>
      <rect x="56" y="-905" clip-path="url(#clipPath2)" fill="yellow" width="263" height="1" stroke="none"/>
      <rect x="56" y="-828" clip-path="url(#clipPath2)" fill="rgb(178,142,0)" width="264" height="1" stroke="none"/>
      <rect x="319" y="-905" clip-path="url(#clipPath2)" fill="rgb(178,142,0)" width="1" height="77" stroke="none"/>
    </g>
    <g text-rendering="geometricPrecision" stroke-miterlimit="1.45" shape-rendering="geometricPrecision" font-family="sans-serif" transform="matrix(1,0,0,1,-40,921)" stroke-linecap="butt">
      <text x="134.2939" xml:space="preserve" y="-889.377" clip-path="url(#clipPath8)" stroke="none">&lt;&lt;application&gt;&gt;</text>
      <text x="131.2407" font-size="13px" y="-865.48" clip-path="url(#clipPath8)" stroke="none" font-weight="bold" xml:space="preserve">lea.dasshboard</text>
    </g>
    <g fill="rgb(255,204,0)" text-rendering="geometricPrecision" shape-rendering="geometricPrecision" transform="matrix(1.4743,0,0,1.4423,226.9435,629.1768)" stroke="rgb(255,204,0)">
      <g clip-path="url(#clipPath9)">
        <svg xmlns:svg="http://www.w3.org/2000/svg" xmlns:sodipodi="http://sodipodi.sourceforge.net/DTD/sodipodi-0.dtd" xmlns:inkscape="http://www.inkscape.org/namespaces/inkscape" xmlns:dc="http://purl.org/dc/elements/1.1/" xmlns:cc="http://web.resource.org/cc/" xmlns:rdf="http://www.w3.org/1999/02/22-rdf-syntax-ns#" opacity="1" writing-mode="lr-tb" stop-color="rgb(0, 0, 0)" shape-rendering="auto" glyph-orientation-horizontal="0deg" color-profile="auto" lighting-color="rgb(255, 255, 255)" color="rgb(0, 0, 0)" font-weight="400" alignment-baseline="auto" font-style="normal" version="1.0" color-interpolation-filters="linearrgb" text-anchor="start" stroke-linecap="butt" color-interpolation="srgb" font-variant="normal" word-spacing="normal" fill-opacity="1" text-rendering="auto" clip-path="none" text-decoration="none" letter-spacing="normal" glyph-orientation-vertical="auto" display="inline" font-size-adjust="none" overflow="visible" fill="rgb(0, 0, 0)" font-stretch="normal" stroke-dasharray="none" inkscape:version="0.45.1" id="svg1.svg2" stroke-miterlimit="4" stop-opacity="1" color-rendering="auto" font-size="12" sodipodi:docbase="C:\Daten\alberts\projects\yfx" pointer-events="visiblepainted" mask="none" direction="ltr" baseline-shift="baseline" sodipodi:docname="uml_actor.svg" enable-background="accumulate" fill-rule="nonzero" image-rendering="auto" stroke-dashoffset="0" inkscape:output_extension="org.inkscape.output.svg.inkscape" marker-end="none" width="41" clip="auto" cursor="auto" stroke="none" filter="none" visibility="visible" kerning="auto" stroke-width="1" font-family="&quot;Arial&quot;,&quot;Helvetica&quot;,sans-serif" flood-opacity="1" clip-rule="nonzero" src="none" height="68.997391" unicode-bidi="normal" sodipodi:version="0.32" stroke-linejoin="miter" stroke-opacity="1" flood-color="rgb(0, 0, 0)" dominant-baseline="auto" marker-start="none" marker-mid="none">
  <defs id="svg1.defs4">
            <clipPath clipPathUnits="userSpaceOnUse" id="clipPath1">
              <path d="M0 0 L844 0 L844 1042 L0 1042 L0 0 Z"/>
            </clipPath>
            <clipPath clipPathUnits="userSpaceOnUse" id="clipPath2">
              <path d="M40 -921 L884 -921 L884 121 L40 121 L40 -921 Z"/>
            </clipPath>
            <clipPath clipPathUnits="userSpaceOnUse" id="clipPath3">
              <path d="M464 -489 L464 -411 L729 -411 L729 -489 Z"/>
            </clipPath>
            <clipPath clipPathUnits="userSpaceOnUse" id="clipPath4">
              <path d="M553 -281 L553 -203 L818 -203 L818 -281 Z"/>
            </clipPath>
            <clipPath clipPathUnits="userSpaceOnUse" id="clipPath5">
              <path d="M332 -676 L332 -598 L597 -598 L597 -676 Z"/>
            </clipPath>
            <clipPath clipPathUnits="userSpaceOnUse" id="clipPath6">
              <path d="M370 -122 L370 -44 L635 -44 L635 -122 Z"/>
            </clipPath>
            <clipPath clipPathUnits="userSpaceOnUse" id="clipPath7">
              <path d="M149 -489 L149 -411 L414 -411 L414 -489 Z"/>
            </clipPath>
            <clipPath clipPathUnits="userSpaceOnUse" id="clipPath8">
              <path d="M55 -905 L55 -827 L320 -827 L320 -905 Z"/>
            </clipPath>
            <clipPath clipPathUnits="userSpaceOnUse" id="clipPath9">
              <path d="M-153.9331 -436.2451 L418.542 -436.2451 L418.542 286.2346 L-153.9331 286.2346 L-153.9331 -436.2451 Z"/>
            </clipPath>
            <clipPath clipPathUnits="userSpaceOnUse" id="clipPath10">
              <path d="M-79.5475 -147.8079 L492.9276 -147.8079 L492.9276 574.6718 L-79.5475 574.6718 L-79.5475 -147.8079 Z"/>
            </clipPath>
            <clipPath clipPathUnits="userSpaceOnUse" id="clipPath11">
              <path d="M-293.2082 -642.9581 L279.2669 -642.9581 L279.2669 79.5216 L-293.2082 79.5216 L-293.2082 -642.9581 Z"/>
            </clipPath>
            <clipPath clipPathUnits="userSpaceOnUse" id="clipPath12">
              <path d="M530 -905 L530 -827 L795 -827 L795 -905 Z"/>
            </clipPath>
          </defs>
  
  <metadata id="svg1.metadata7">
    
  </metadata>
  <g inkscape:groupmode="layer" id="svg1.layer1" transform="translate(-29.5,-42.959476)" inkscape:label="Ebene 1">
    <a id="svg1.a3142" transform="matrix(1.0873906,0,0,1,-4.4741999,0)">
      <path transform="translate(11.586889,5.2908993)" style="fill:none;fill-rule:evenodd;stroke:#000000;stroke-width:1px;stroke-linecap:butt;stroke-linejoin:miter;stroke-opacity:1" sodipodi:cx="38.509369" sodipodi:cy="47.36993" sodipodi:rx="8.5197716" id="svg1.path2160" d="M 47.02914 47.36993 A 8.5197716 9.2013531 0 1 1  29.989597,47.36993 A 8.5197716 9.2013531 0 1 1  47.02914 47.36993 z" sodipodi:ry="9.2013531" sodipodi:type="arc"/>
    </a>
    <path style="fill:none" sodipodi:cx="43.962021" sodipodi:cy="48.392303" d="M 47.71072 48.392303 A 3.7486994 0 0 1 1  40.213321,48.392303 A 3.7486994 0 0 1 1  47.71072 48.392303 z" id="svg1.path3134" sodipodi:rx="3.7486994" sodipodi:ry="0" sodipodi:type="arc"/>
    <path style="fill:none;fill-rule:evenodd;stroke:#000000;stroke-width:1.24319649px;stroke-linecap:butt;stroke-linejoin:miter;stroke-opacity:1" d="M 50,61.33709 C 50,91.363211 50,92.247838 50,92.247838" id="svg1.path3136"/>
    <path style="fill:none;fill-rule:evenodd;stroke:#000000;stroke-width:1px;stroke-linecap:butt;stroke-linejoin:miter;stroke-opacity:1" d="M 69.760668,72.362183 C 69.760668,72.362183 69.760668,72.362183 50.239332,72.362183 C 30.239332,72.362183 30.239332,72.362183 30.239332,72.362183 L 30.239332,72.362183" id="svg1.path3138"/>
    <path style="fill:none;fill-rule:evenodd;stroke:#000000;stroke-width:1px;stroke-linecap:butt;stroke-linejoin:miter;stroke-opacity:1" d="M 30,111.45687 C 30,111.45687 30,111.45687 50,92.013532 C 70,111.45687 70,111.45687 70,111.45687" id="svg1.path3140"/>
  </g>
</svg>
      </g>
    </g>
    <g font-size="13px" stroke-linecap="butt" transform="matrix(1,0,0,1,-40,921)" text-rendering="geometricPrecision" font-family="sans-serif" shape-rendering="geometricPrecision" stroke-miterlimit="1.45">
      <text x="262.08" xml:space="preserve" y="-174.4487" clip-path="url(#clipPath2)" stroke="none">Participant</text>
    </g>
    <g fill="rgb(255,204,0)" text-rendering="geometricPrecision" shape-rendering="geometricPrecision" transform="matrix(1.4743,0,0,1.4423,117.2768,213.1768)" stroke="rgb(255,204,0)">
      <g clip-path="url(#clipPath10)">
        <svg xmlns:svg="http://www.w3.org/2000/svg" xmlns:sodipodi="http://sodipodi.sourceforge.net/DTD/sodipodi-0.dtd" xmlns:inkscape="http://www.inkscape.org/namespaces/inkscape" xmlns:dc="http://purl.org/dc/elements/1.1/" xmlns:cc="http://web.resource.org/cc/" xmlns:rdf="http://www.w3.org/1999/02/22-rdf-syntax-ns#" opacity="1" writing-mode="lr-tb" stop-color="rgb(0, 0, 0)" shape-rendering="auto" glyph-orientation-horizontal="0deg" color-profile="auto" lighting-color="rgb(255, 255, 255)" color="rgb(0, 0, 0)" font-weight="400" alignment-baseline="auto" font-style="normal" version="1.0" color-interpolation-filters="linearrgb" text-anchor="start" stroke-linecap="butt" color-interpolation="srgb" font-variant="normal" word-spacing="normal" fill-opacity="1" text-rendering="auto" clip-path="none" text-decoration="none" letter-spacing="normal" glyph-orientation-vertical="auto" display="inline" font-size-adjust="none" overflow="visible" fill="rgb(0, 0, 0)" font-stretch="normal" stroke-dasharray="none" inkscape:version="0.45.1" id="svg2.svg2" stroke-miterlimit="4" stop-opacity="1" color-rendering="auto" font-size="12" sodipodi:docbase="C:\Daten\alberts\projects\yfx" pointer-events="visiblepainted" mask="none" direction="ltr" baseline-shift="baseline" sodipodi:docname="uml_actor.svg" enable-background="accumulate" fill-rule="nonzero" image-rendering="auto" stroke-dashoffset="0" inkscape:output_extension="org.inkscape.output.svg.inkscape" marker-end="none" width="41" clip="auto" cursor="auto" stroke="none" filter="none" visibility="visible" kerning="auto" stroke-width="1" font-family="&quot;Arial&quot;,&quot;Helvetica&quot;,sans-serif" flood-opacity="1" clip-rule="nonzero" src="none" height="68.997391" unicode-bidi="normal" sodipodi:version="0.32" stroke-linejoin="miter" stroke-opacity="1" flood-color="rgb(0, 0, 0)" dominant-baseline="auto" marker-start="none" marker-mid="none">
  <defs id="svg2.defs4"/>
  
  <metadata id="svg2.metadata7">
    
  </metadata>
  <g inkscape:groupmode="layer" id="svg2.layer1" transform="translate(-29.5,-42.959476)" inkscape:label="Ebene 1">
    <a id="svg2.a3142" transform="matrix(1.0873906,0,0,1,-4.4741999,0)">
      <path transform="translate(11.586889,5.2908993)" style="fill:none;fill-rule:evenodd;stroke:#000000;stroke-width:1px;stroke-linecap:butt;stroke-linejoin:miter;stroke-opacity:1" sodipodi:cx="38.509369" sodipodi:cy="47.36993" sodipodi:rx="8.5197716" id="svg2.path2160" d="M 47.02914 47.36993 A 8.5197716 9.2013531 0 1 1  29.989597,47.36993 A 8.5197716 9.2013531 0 1 1  47.02914 47.36993 z" sodipodi:ry="9.2013531" sodipodi:type="arc"/>
    </a>
    <path style="fill:none" sodipodi:cx="43.962021" sodipodi:cy="48.392303" d="M 47.71072 48.392303 A 3.7486994 0 0 1 1  40.213321,48.392303 A 3.7486994 0 0 1 1  47.71072 48.392303 z" id="svg2.path3134" sodipodi:rx="3.7486994" sodipodi:ry="0" sodipodi:type="arc"/>
    <path style="fill:none;fill-rule:evenodd;stroke:#000000;stroke-width:1.24319649px;stroke-linecap:butt;stroke-linejoin:miter;stroke-opacity:1" d="M 50,61.33709 C 50,91.363211 50,92.247838 50,92.247838" id="svg2.path3136"/>
    <path style="fill:none;fill-rule:evenodd;stroke:#000000;stroke-width:1px;stroke-linecap:butt;stroke-linejoin:miter;stroke-opacity:1" d="M 69.760668,72.362183 C 69.760668,72.362183 69.760668,72.362183 50.239332,72.362183 C 30.239332,72.362183 30.239332,72.362183 30.239332,72.362183 L 30.239332,72.362183" id="svg2.path3138"/>
    <path style="fill:none;fill-rule:evenodd;stroke:#000000;stroke-width:1px;stroke-linecap:butt;stroke-linejoin:miter;stroke-opacity:1" d="M 30,111.45687 C 30,111.45687 30,111.45687 50,92.013532 C 70,111.45687 70,111.45687 70,111.45687" id="svg2.path3140"/>
  </g>
</svg>
      </g>
    </g>
    <g font-size="13px" stroke-linecap="butt" transform="matrix(1,0,0,1,-40,921)" text-rendering="geometricPrecision" font-family="sans-serif" shape-rendering="geometricPrecision" stroke-miterlimit="1.45">
      <text x="155.9648" xml:space="preserve" y="-590.4487" clip-path="url(#clipPath2)" stroke="none">Instructor</text>
    </g>
    <g fill="rgb(255,204,0)" text-rendering="geometricPrecision" shape-rendering="geometricPrecision" transform="matrix(1.4743,0,0,1.4423,432.2768,927.3096)" stroke="rgb(255,204,0)">
      <g clip-path="url(#clipPath11)">
        <svg xmlns:svg="http://www.w3.org/2000/svg" xmlns:sodipodi="http://sodipodi.sourceforge.net/DTD/sodipodi-0.dtd" xmlns:inkscape="http://www.inkscape.org/namespaces/inkscape" xmlns:dc="http://purl.org/dc/elements/1.1/" xmlns:cc="http://web.resource.org/cc/" xmlns:rdf="http://www.w3.org/1999/02/22-rdf-syntax-ns#" opacity="1" writing-mode="lr-tb" stop-color="rgb(0, 0, 0)" shape-rendering="auto" glyph-orientation-horizontal="0deg" color-profile="auto" lighting-color="rgb(255, 255, 255)" color="rgb(0, 0, 0)" font-weight="400" alignment-baseline="auto" font-style="normal" version="1.0" color-interpolation-filters="linearrgb" text-anchor="start" stroke-linecap="butt" color-interpolation="srgb" font-variant="normal" word-spacing="normal" fill-opacity="1" text-rendering="auto" clip-path="none" text-decoration="none" letter-spacing="normal" glyph-orientation-vertical="auto" display="inline" font-size-adjust="none" overflow="visible" fill="rgb(0, 0, 0)" font-stretch="normal" stroke-dasharray="none" inkscape:version="0.45.1" id="svg3.svg2" stroke-miterlimit="4" stop-opacity="1" color-rendering="auto" font-size="12" sodipodi:docbase="C:\Daten\alberts\projects\yfx" pointer-events="visiblepainted" mask="none" direction="ltr" baseline-shift="baseline" sodipodi:docname="uml_actor.svg" enable-background="accumulate" fill-rule="nonzero" image-rendering="auto" stroke-dashoffset="0" inkscape:output_extension="org.inkscape.output.svg.inkscape" marker-end="none" width="41" clip="auto" cursor="auto" stroke="none" filter="none" visibility="visible" kerning="auto" stroke-width="1" font-family="&quot;Arial&quot;,&quot;Helvetica&quot;,sans-serif" flood-opacity="1" clip-rule="nonzero" src="none" height="68.997391" unicode-bidi="normal" sodipodi:version="0.32" stroke-linejoin="miter" stroke-opacity="1" flood-color="rgb(0, 0, 0)" dominant-baseline="auto" marker-start="none" marker-mid="none">
  <defs id="svg3.defs4"/>
  
  <metadata id="svg3.metadata7">
    
  </metadata>
  <g inkscape:groupmode="layer" id="svg3.layer1" transform="translate(-29.5,-42.959476)" inkscape:label="Ebene 1">
    <a id="svg3.a3142" transform="matrix(1.0873906,0,0,1,-4.4741999,0)">
      <path transform="translate(11.586889,5.2908993)" style="fill:none;fill-rule:evenodd;stroke:#000000;stroke-width:1px;stroke-linecap:butt;stroke-linejoin:miter;stroke-opacity:1" sodipodi:cx="38.509369" sodipodi:cy="47.36993" sodipodi:rx="8.5197716" id="svg3.path2160" d="M 47.02914 47.36993 A 8.5197716 9.2013531 0 1 1  29.989597,47.36993 A 8.5197716 9.2013531 0 1 1  47.02914 47.36993 z" sodipodi:ry="9.2013531" sodipodi:type="arc"/>
    </a>
    <path style="fill:none" sodipodi:cx="43.962021" sodipodi:cy="48.392303" d="M 47.71072 48.392303 A 3.7486994 0 0 1 1  40.213321,48.392303 A 3.7486994 0 0 1 1  47.71072 48.392303 z" id="svg3.path3134" sodipodi:rx="3.7486994" sodipodi:ry="0" sodipodi:type="arc"/>
    <path style="fill:none;fill-rule:evenodd;stroke:#000000;stroke-width:1.24319649px;stroke-linecap:butt;stroke-linejoin:miter;stroke-opacity:1" d="M 50,61.33709 C 50,91.363211 50,92.247838 50,92.247838" id="svg3.path3136"/>
    <path style="fill:none;fill-rule:evenodd;stroke:#000000;stroke-width:1px;stroke-linecap:butt;stroke-linejoin:miter;stroke-opacity:1" d="M 69.760668,72.362183 C 69.760668,72.362183 69.760668,72.362183 50.239332,72.362183 C 30.239332,72.362183 30.239332,72.362183 30.239332,72.362183 L 30.239332,72.362183" id="svg3.path3138"/>
    <path style="fill:none;fill-rule:evenodd;stroke:#000000;stroke-width:1px;stroke-linecap:butt;stroke-linejoin:miter;stroke-opacity:1" d="M 30,111.45687 C 30,111.45687 30,111.45687 50,92.013532 C 70,111.45687 70,111.45687 70,111.45687" id="svg3.path3140"/>
  </g>
</svg>
      </g>
    </g>
    <g font-size="13px" stroke-linecap="butt" transform="matrix(1,0,0,1,-40,921)" text-rendering="geometricPrecision" font-family="sans-serif" shape-rendering="geometricPrecision" stroke-miterlimit="1.45">
      <text x="538.5" xml:space="preserve" y="80.826" clip-path="url(#clipPath2)" stroke="none">lea. core team</text>
    </g>
    <g fill="rgb(255,255,153)" text-rendering="geometricPrecision" shape-rendering="geometricPrecision" transform="matrix(1,0,0,1,-40,921)" stroke="rgb(255,255,153)">
      <rect x="531" width="263" height="76" y="-904" clip-path="url(#clipPath2)" stroke="none"/>
      <rect x="530" y="-905" clip-path="url(#clipPath2)" fill="rgb(255,255,218)" width="1" height="78" stroke="none"/>
      <rect x="531" y="-905" clip-path="url(#clipPath2)" fill="rgb(255,255,218)" width="263" height="1" stroke="none"/>
      <rect x="531" y="-828" clip-path="url(#clipPath2)" fill="rgb(178,178,107)" width="264" height="1" stroke="none"/>
      <rect x="794" y="-905" clip-path="url(#clipPath2)" fill="rgb(178,178,107)" width="1" height="77" stroke="none"/>
    </g>
    <g text-rendering="geometricPrecision" stroke-miterlimit="1.45" shape-rendering="geometricPrecision" font-family="sans-serif" transform="matrix(1,0,0,1,-40,921)" stroke-linecap="butt">
      <text x="621.8151" xml:space="preserve" y="-889.377" clip-path="url(#clipPath12)" stroke="none">&lt;&lt;service&gt;&gt;</text>
      <text x="630.6279" font-size="13px" y="-865.48" clip-path="url(#clipPath12)" stroke="none" font-weight="bold" xml:space="preserve">accounts</text>
      <path fill="none" d="M685.5 -281.5474 L685.5 -403.4839" clip-path="url(#clipPath2)"/>
      <path d="M685.5 -411.4839 L680.5 -399.4839 L685.5 -402.4839 L690.5 -399.4839 Z" clip-path="url(#clipPath2)" stroke="none"/>
      <text x="647.7979" xml:space="preserve" y="-342.3613" clip-path="url(#clipPath2)" stroke="none">load content</text>
      <path fill="none" d="M530.9167 -489.5422 L530.9167 -590.2391" clip-path="url(#clipPath2)"/>
      <path d="M530.9167 -598.2391 L525.9167 -586.2391 L530.9167 -589.2391 L535.9167 -586.2391 Z" clip-path="url(#clipPath2)" stroke="none"/>
      <text x="474.8294" xml:space="preserve" y="-538.3246" clip-path="url(#clipPath2)" stroke="none">send results</text>
      <path fill="none" d="M555.5 -122.4136 L555.5 -153.8828 L685.5 -153.8828 L685.5 -195.4672" clip-path="url(#clipPath2)"/>
      <path d="M685.5 -203.4672 L680.5 -191.4672 L685.5 -194.4672 L690.5 -191.4672 Z" clip-path="url(#clipPath2)" stroke="none"/>
      <text x="608.9805" xml:space="preserve" y="-149.7285" clip-path="url(#clipPath2)" stroke="none">edit</text>
      <path fill="none" d="M502.5 -122.4113 L502.5 -355.5156 L597.1667 -355.5156 L597.1667 -403.4883" clip-path="url(#clipPath2)"/>
      <path d="M597.1667 -411.4883 L592.1667 -399.4883 L597.1667 -402.4883 L602.1667 -399.4883 Z" clip-path="url(#clipPath2)" stroke="none"/>
      <text x="484.1396" xml:space="preserve" y="-241.7871" clip-path="url(#clipPath2)" stroke="none">config</text>
      <path fill="none" d="M597.1667 -281.5588 L597.1667 -325.7656 L370.5 -325.7656 L370.5 -403.4738" clip-path="url(#clipPath2)"/>
      <path d="M370.5 -411.4738 L365.5 -399.4738 L370.5 -402.4738 L375.5 -399.4738 Z" clip-path="url(#clipPath2)" stroke="none"/>
      <text x="390.7145" xml:space="preserve" y="-321.6113" clip-path="url(#clipPath2)" stroke="none">load content</text>
      <path fill="none" d="M449.5 -122.4136 L449.5 -153.8828 L193.8333 -153.8828 L193.8333 -403.4842" clip-path="url(#clipPath2)"/>
      <path d="M193.8333 -411.4842 L188.8333 -399.4842 L193.8333 -402.4842 L198.8333 -399.4842 Z" clip-path="url(#clipPath2)" stroke="none"/>
      <text x="175.473" xml:space="preserve" y="-220.2517" clip-path="url(#clipPath2)" stroke="none">config</text>
      <path fill="none" d="M348.4167 -489.5624 L348.4167 -537.3828 L398.4167 -537.3828 L398.4167 -590.2359" clip-path="url(#clipPath2)"/>
      <path d="M398.4167 -598.2359 L393.4167 -586.2359 L398.4167 -589.2359 L403.4167 -586.2359 Z" clip-path="url(#clipPath2)" stroke="none"/>
      <text x="311.8483" xml:space="preserve" y="-503.2285" clip-path="url(#clipPath2)" stroke="none">send results</text>
      <path fill="none" d="M398.4167 -676.2992 L398.4167 -745.0156 L275.8333 -745.0156 L275.8333 -819.4753" clip-path="url(#clipPath2)"/>
      <path d="M275.8333 -827.4753 L270.8333 -815.4753 L275.8333 -818.4753 L280.8333 -815.4753 Z" clip-path="url(#clipPath2)" stroke="none"/>
      <text x="210.8704" xml:space="preserve" y="-775.1191" clip-path="url(#clipPath2)" stroke="none">load results</text>
      <path fill="none" d="M396.5 -122.4131 L396.5 -137.8828 L99.1667 -137.8828 L99.1667 -819.4735" clip-path="url(#clipPath2)"/>
      <path d="M99.1667 -827.4735 L94.1667 -815.4735 L99.1667 -818.4735 L104.1667 -815.4735 Z" clip-path="url(#clipPath2)" stroke="none"/>
      <text x="80.8063" xml:space="preserve" y="-315.6379" clip-path="url(#clipPath2)" stroke="none">config</text>
      <path fill="none" d="M282.1667 -292.5447 L282.1667 -403.4866" clip-path="url(#clipPath2)"/>
      <path d="M282.1667 -411.4866 L277.1667 -399.4866 L282.1667 -402.4866 L287.1667 -399.4866 Z" clip-path="url(#clipPath2)" stroke="none"/>
      <path fill="none" d="M312.1667 -292.5542 L312.1667 -371.5156 L508.8333 -371.5156 L508.8333 -403.4766" clip-path="url(#clipPath2)"/>
      <path d="M508.8333 -411.4766 L503.8333 -399.4766 L508.8333 -402.4766 L513.8334 -399.4766 Z" clip-path="url(#clipPath2)" stroke="none"/>
      <path fill="none" d="M187.5 -708.5447 L187.5 -819.4866" clip-path="url(#clipPath2)"/>
      <path d="M187.5 -827.4866 L182.5 -815.4866 L187.5 -818.4866 L192.5 -815.4866 Z" clip-path="url(#clipPath2)" stroke="none"/>
      <path fill="none" d="M502.5 5.5684 L502.5 -36.334" clip-path="url(#clipPath2)"/>
      <path d="M502.5 -44.334 L497.5 -32.334 L502.5 -35.334 L507.5 -32.334 Z" clip-path="url(#clipPath2)" stroke="none"/>
    </g>
    <g stroke-linecap="butt" transform="matrix(1,0,0,1,-40,921)" fill="silver" text-rendering="geometricPrecision" shape-rendering="geometricPrecision" stroke-dasharray="6,2" stroke="silver" stroke-miterlimit="1.45">
      <path fill="none" d="M557.4167 -827.4675 L557.4167 -729.0156 L271.5353 -729.0156 L271.5353 -537.3828 L215.9167 -537.3828 L215.9167 -489.5624" clip-path="url(#clipPath2)"/>
      <path fill="none" d="M530.8909 -866.5156 L320.0258 -866.5156" clip-path="url(#clipPath2)"/>
      <path fill="none" d="M610.4167 -827.4877 L610.4167 -713.0156 L530.9167 -713.0156 L530.9167 -676.3015" clip-path="url(#clipPath2)"/>
      <path fill="none" d="M663.4167 -827.4744 L663.4167 -489.5569" clip-path="url(#clipPath2)"/>
      <path fill="none" d="M716.4167 -827.4744 L716.4167 -658.5156 L773.8333 -658.5156 L773.8333 -339.5156 L773.8333 -281.5439" clip-path="url(#clipPath2)"/>
      <path fill="none" d="M769.4167 -827.4821 L769.4167 -690.0156 L868.5 -690.0156 L868.5 -137.8828 L608.5 -137.8828 L608.5 -122.4131" clip-path="url(#clipPath2)"/>
    </g>
  </g>
</svg>
