<?xml version="1.0" encoding="UTF-8"?><svg xmlns="http://www.w3.org/2000/svg" xmlns:xlink="http://www.w3.org/1999/xlink" fill-opacity="1" color-rendering="auto" color-interpolation="auto" text-rendering="auto" stroke="black" stroke-linecap="square" width="1253" stroke-miterlimit="10" shape-rendering="auto" stroke-opacity="1" fill="black" stroke-dasharray="none" font-weight="normal" stroke-width="1" height="352" font-family="'Dialog'" font-style="normal" stroke-linejoin="miter" font-size="12px" stroke-dashoffset="0" image-rendering="auto">
  <!--Generated by ySVG 2.5-->
  <defs id="genericDefs"/>
  <g>
    <defs id="defs1">
      <clipPath clipPathUnits="userSpaceOnUse" id="clipPath1">
        <path d="M0 0 L1253 0 L1253 352 L0 352 L0 0 Z"/>
      </clipPath>
      <clipPath clipPathUnits="userSpaceOnUse" id="clipPath2">
        <path d="M-237 61 L1016 61 L1016 413 L-237 413 L-237 61 Z"/>
      </clipPath>
      <clipPath clipPathUnits="userSpaceOnUse" id="clipPath3">
        <path d="M94 76 L94 154 L1000 154 L1000 76 Z"/>
      </clipPath>
      <clipPath clipPathUnits="userSpaceOnUse" id="clipPath4">
        <path d="M-221 76 L-221 398 L44 398 L44 76 Z"/>
      </clipPath>
      <clipPath clipPathUnits="userSpaceOnUse" id="clipPath5">
        <path d="M724 198 L724 276 L999 276 L999 198 Z"/>
      </clipPath>
      <clipPath clipPathUnits="userSpaceOnUse" id="clipPath6">
        <path d="M409 198 L409 276 L674 276 L674 198 Z"/>
      </clipPath>
      <clipPath clipPathUnits="userSpaceOnUse" id="clipPath7">
        <path d="M94 197 L94 275 L359 275 L359 197 Z"/>
      </clipPath>
      <clipPath clipPathUnits="userSpaceOnUse" id="clipPath8">
        <path d="M94 320 L94 398 L1000 398 L1000 320 Z"/>
      </clipPath>
    </defs>
    <g fill="white" text-rendering="geometricPrecision" shape-rendering="geometricPrecision" transform="translate(237,-61)" stroke="white">
      <rect x="-237" width="1253" height="352" y="61" clip-path="url(#clipPath2)" stroke="none"/>
    </g>
    <g fill="rgb(255,204,0)" text-rendering="geometricPrecision" shape-rendering="geometricPrecision" transform="matrix(1,0,0,1,237,-61)" stroke="rgb(255,204,0)">
      <rect x="95" width="904" height="76" y="77" clip-path="url(#clipPath2)" stroke="none"/>
      <rect x="94" y="76" clip-path="url(#clipPath2)" fill="yellow" width="1" height="78" stroke="none"/>
      <rect x="95" y="76" clip-path="url(#clipPath2)" fill="yellow" width="904" height="1" stroke="none"/>
      <rect x="95" y="153" clip-path="url(#clipPath2)" fill="rgb(178,142,0)" width="905" height="1" stroke="none"/>
      <rect x="999" y="76" clip-path="url(#clipPath2)" fill="rgb(178,142,0)" width="1" height="77" stroke="none"/>
    </g>
    <g text-rendering="geometricPrecision" stroke-miterlimit="1.45" shape-rendering="geometricPrecision" font-family="sans-serif" transform="matrix(1,0,0,1,237,-61)" stroke-linecap="butt">
      <text x="493.8687" xml:space="preserve" y="92.1387" clip-path="url(#clipPath3)" stroke="none">&lt;&lt;application&gt;&gt;</text>
      <text x="510.2329" font-size="13px" y="116.0356" clip-path="url(#clipPath3)" stroke="none" font-weight="bold" xml:space="preserve">client-app</text>
      <line stroke-linecap="square" clip-path="url(#clipPath3)" fill="none" x1="95" x2="999" y1="124" y2="124" stroke-miterlimit="10"/>
      <text x="99" xml:space="preserve" y="140.2402" clip-path="url(#clipPath3)" stroke="none">leaonine-otulea / leaonline-teacher /leaonline-mobile</text>
      <line stroke-linecap="square" clip-path="url(#clipPath3)" fill="none" x1="95" x2="999" y1="148" y2="148" stroke-miterlimit="10"/>
    </g>
    <g fill="rgb(255,204,0)" text-rendering="geometricPrecision" shape-rendering="geometricPrecision" transform="matrix(1,0,0,1,237,-61)" stroke="rgb(255,204,0)">
      <rect x="-220" width="263" height="320" y="77" clip-path="url(#clipPath2)" stroke="none"/>
      <rect x="-221" y="76" clip-path="url(#clipPath2)" fill="yellow" width="1" height="322" stroke="none"/>
      <rect x="-220" y="76" clip-path="url(#clipPath2)" fill="yellow" width="263" height="1" stroke="none"/>
      <rect x="-220" y="397" clip-path="url(#clipPath2)" fill="rgb(178,142,0)" width="264" height="1" stroke="none"/>
      <rect x="43" y="76" clip-path="url(#clipPath2)" fill="rgb(178,142,0)" width="1" height="321" stroke="none"/>
    </g>
    <g text-rendering="geometricPrecision" stroke-miterlimit="1.45" shape-rendering="geometricPrecision" font-family="sans-serif" transform="matrix(1,0,0,1,237,-61)" stroke-linecap="butt">
      <text x="-130.2785" xml:space="preserve" y="92.1387" clip-path="url(#clipPath4)" stroke="none">&lt;&lt;service&gt;&gt;</text>
      <text x="-157.7711" font-size="13px" y="116.0356" clip-path="url(#clipPath4)" stroke="none" font-weight="bold" xml:space="preserve">leaonline-accounts</text>
      <line stroke-linecap="square" clip-path="url(#clipPath4)" fill="none" x1="-220" x2="42" y1="124" y2="124" stroke-miterlimit="10"/>
      <text x="-216.1769" xml:space="preserve" y="140.2402" clip-path="url(#clipPath4)" stroke="none">Authentication and authorization</text>
      <text x="-216.1769" xml:space="preserve" y="154.209" clip-path="url(#clipPath4)" stroke="none">service for all running apps.</text>
      <line stroke-linecap="square" clip-path="url(#clipPath4)" fill="none" x1="-220" x2="42" y1="162" y2="162" stroke-miterlimit="10"/>
    </g>
    <g fill="rgb(255,204,0)" text-rendering="geometricPrecision" shape-rendering="geometricPrecision" transform="matrix(1,0,0,1,237,-61)" stroke="rgb(255,204,0)">
      <rect x="725" width="273" height="76" y="199" clip-path="url(#clipPath2)" stroke="none"/>
      <rect x="724" y="198" clip-path="url(#clipPath2)" fill="yellow" width="1" height="78" stroke="none"/>
      <rect x="725" y="198" clip-path="url(#clipPath2)" fill="yellow" width="273" height="1" stroke="none"/>
      <rect x="725" y="275" clip-path="url(#clipPath2)" fill="rgb(178,142,0)" width="274" height="1" stroke="none"/>
      <rect x="998" y="198" clip-path="url(#clipPath2)" fill="rgb(178,142,0)" width="1" height="77" stroke="none"/>
    </g>
    <g text-rendering="geometricPrecision" stroke-miterlimit="1.45" shape-rendering="geometricPrecision" font-family="sans-serif" transform="matrix(1,0,0,1,237,-61)" stroke-linecap="butt">
      <text x="820.65" xml:space="preserve" y="214.1387" clip-path="url(#clipPath5)" stroke="none">&lt;&lt;service&gt;&gt;</text>
      <text x="797.7499" font-size="13px" y="238.0356" clip-path="url(#clipPath5)" stroke="none" font-weight="bold" xml:space="preserve">leaonline-content</text>
      <line stroke-linecap="square" clip-path="url(#clipPath5)" fill="none" x1="725" x2="999" y1="246" y2="246" stroke-miterlimit="10"/>
      <text x="729.3538" xml:space="preserve" y="262.2402" clip-path="url(#clipPath5)" stroke="none">assets and static documents</text>
      <line stroke-linecap="square" clip-path="url(#clipPath5)" fill="none" x1="725" x2="999" y1="270" y2="270" stroke-miterlimit="10"/>
    </g>
    <g fill="rgb(255,204,0)" text-rendering="geometricPrecision" shape-rendering="geometricPrecision" transform="matrix(1,0,0,1,237,-61)" stroke="rgb(255,204,0)">
      <rect x="410" width="263" height="76" y="199" clip-path="url(#clipPath2)" stroke="none"/>
      <rect x="409" y="198" clip-path="url(#clipPath2)" fill="yellow" width="1" height="78" stroke="none"/>
      <rect x="410" y="198" clip-path="url(#clipPath2)" fill="yellow" width="263" height="1" stroke="none"/>
      <rect x="410" y="275" clip-path="url(#clipPath2)" fill="rgb(178,142,0)" width="264" height="1" stroke="none"/>
      <rect x="673" y="198" clip-path="url(#clipPath2)" fill="rgb(178,142,0)" width="1" height="77" stroke="none"/>
    </g>
    <g text-rendering="geometricPrecision" stroke-miterlimit="1.45" shape-rendering="geometricPrecision" font-family="sans-serif" transform="matrix(1,0,0,1,237,-61)" stroke-linecap="butt">
      <text x="500.0753" xml:space="preserve" y="214.1387" clip-path="url(#clipPath6)" stroke="none">&lt;&lt;service&gt;&gt;</text>
      <text x="471.748" font-size="13px" y="238.0356" clip-path="url(#clipPath6)" stroke="none" font-weight="bold" xml:space="preserve">leaonline-statistics</text>
      <line stroke-linecap="square" clip-path="url(#clipPath6)" fill="none" x1="410" x2="673" y1="246" y2="246" stroke-miterlimit="10"/>
      <text x="414.1769" xml:space="preserve" y="262.2402" clip-path="url(#clipPath6)" stroke="none">statistical evaluation of responses</text>
      <line stroke-linecap="square" clip-path="url(#clipPath6)" fill="none" x1="410" x2="673" y1="270" y2="270" stroke-miterlimit="10"/>
    </g>
    <g fill="rgb(255,204,0)" text-rendering="geometricPrecision" shape-rendering="geometricPrecision" transform="matrix(1,0,0,1,237,-61)" stroke="rgb(255,204,0)">
      <rect x="95" width="263" height="76" y="198" clip-path="url(#clipPath2)" stroke="none"/>
      <rect x="94" y="197" clip-path="url(#clipPath2)" fill="yellow" width="1" height="78" stroke="none"/>
      <rect x="95" y="197" clip-path="url(#clipPath2)" fill="yellow" width="263" height="1" stroke="none"/>
      <rect x="95" y="274" clip-path="url(#clipPath2)" fill="rgb(178,142,0)" width="264" height="1" stroke="none"/>
      <rect x="358" y="197" clip-path="url(#clipPath2)" fill="rgb(178,142,0)" width="1" height="77" stroke="none"/>
    </g>
    <g text-rendering="geometricPrecision" stroke-miterlimit="1.45" shape-rendering="geometricPrecision" font-family="sans-serif" transform="matrix(1,0,0,1,237,-61)" stroke-linecap="butt">
      <text x="184.8984" xml:space="preserve" y="214.1387" clip-path="url(#clipPath7)" stroke="none">&lt;&lt;service&gt;&gt;</text>
      <text x="158.9895" font-size="13px" y="238.0356" clip-path="url(#clipPath7)" stroke="none" font-weight="bold" xml:space="preserve">leaonline-sessions</text>
      <line stroke-linecap="square" clip-path="url(#clipPath7)" fill="none" x1="95" x2="358" y1="246" y2="246" stroke-miterlimit="10"/>
      <text x="99" xml:space="preserve" y="262.2402" clip-path="url(#clipPath7)" stroke="none">responses, evaluations</text>
      <line stroke-linecap="square" clip-path="url(#clipPath7)" fill="none" x1="95" x2="358" y1="270" y2="270" stroke-miterlimit="10"/>
    </g>
    <g fill="rgb(255,204,0)" text-rendering="geometricPrecision" shape-rendering="geometricPrecision" transform="matrix(1,0,0,1,237,-61)" stroke="rgb(255,204,0)">
      <rect x="95" width="904" height="76" y="321" clip-path="url(#clipPath2)" stroke="none"/>
      <rect x="94" y="320" clip-path="url(#clipPath2)" fill="yellow" width="1" height="78" stroke="none"/>
      <rect x="95" y="320" clip-path="url(#clipPath2)" fill="yellow" width="904" height="1" stroke="none"/>
      <rect x="95" y="397" clip-path="url(#clipPath2)" fill="rgb(178,142,0)" width="905" height="1" stroke="none"/>
      <rect x="999" y="320" clip-path="url(#clipPath2)" fill="rgb(178,142,0)" width="1" height="77" stroke="none"/>
    </g>
    <g text-rendering="geometricPrecision" stroke-miterlimit="1.45" shape-rendering="geometricPrecision" font-family="sans-serif" transform="matrix(1,0,0,1,237,-61)" stroke-linecap="butt">
      <text x="493.8687" xml:space="preserve" y="336.1387" clip-path="url(#clipPath8)" stroke="none">&lt;&lt;application&gt;&gt;</text>
      <text x="493.0212" font-size="13px" y="360.0356" clip-path="url(#clipPath8)" stroke="none" font-weight="bold" xml:space="preserve">client-backend</text>
      <line stroke-linecap="square" clip-path="url(#clipPath8)" fill="none" x1="95" x2="999" y1="368" y2="368" stroke-miterlimit="10"/>
      <text x="99" xml:space="preserve" y="384.2402" clip-path="url(#clipPath8)" stroke="none">application- and service configuration, content creation</text>
      <line stroke-linecap="square" clip-path="url(#clipPath8)" fill="none" x1="95" x2="999" y1="392" y2="392" stroke-miterlimit="10"/>
    </g>
  </g>
</svg>
