<?xml version="1.0" encoding="UTF-8"?><svg xmlns="http://www.w3.org/2000/svg" xmlns:xlink="http://www.w3.org/1999/xlink" fill-opacity="1" color-rendering="auto" color-interpolation="auto" text-rendering="auto" stroke="black" stroke-linecap="square" width="771" stroke-miterlimit="10" shape-rendering="auto" stroke-opacity="1" fill="black" stroke-dasharray="none" font-weight="normal" stroke-width="1" height="962" font-family="'Dialog'" font-style="normal" stroke-linejoin="miter" font-size="12px" stroke-dashoffset="0" image-rendering="auto">
  <!--Generated by ySVG 2.5-->
  <defs id="genericDefs"/>
  <g>
    <g fill="white" text-rendering="geometricPrecision" shape-rendering="geometricPrecision" transform="translate(-64,-81)" stroke="white">
      <rect x="64" width="771" height="962" y="81" clip-path="url(#clipPath2)" stroke="none"/>
    </g>
    <g fill="url(#linearGradient1)" text-rendering="geometricPrecision" shape-rendering="geometricPrecision" transform="matrix(1,0,0,1,-64,-81)" stroke="url(#linearGradient1)">
      <path d="M441 195 L589 195 L589 235 L441 235 Z" stroke="none" clip-path="url(#clipPath2)"/>
    </g>
    <g text-rendering="geometricPrecision" stroke-miterlimit="1.45" shape-rendering="geometricPrecision" transform="matrix(1,0,0,1,-64,-81)" stroke-linecap="butt">
      <path fill="none" d="M441 195 L589 195 L589 235 L441 235 Z" clip-path="url(#clipPath2)"/>
      <text x="464.8145" xml:space="preserve" y="219.1543" clip-path="url(#clipPath2)" font-family="sans-serif" stroke="none">Create invitation</text>
    </g>
    <g fill="url(#linearGradient2)" text-rendering="geometricPrecision" shape-rendering="geometricPrecision" transform="matrix(1,0,0,1,-64,-81)" stroke="url(#linearGradient2)">
      <path d="M307 203 C308.8 195 365.2 195 367 203 L367 227 C365.2 235 308.8 235 307 227 Z" stroke="none" clip-path="url(#clipPath2)"/>
    </g>
    <g text-rendering="geometricPrecision" stroke-miterlimit="1.45" shape-rendering="geometricPrecision" transform="matrix(1,0,0,1,-64,-81)" stroke-linecap="butt">
      <path fill="none" d="M307 203 C308.8 195 365.2 195 367 203 L367 227 C365.2 235 308.8 235 307 227 Z" clip-path="url(#clipPath2)"/>
      <path fill="none" d="M367 203 C365.2 211 308.8 211 307 203" clip-path="url(#clipPath2)"/>
      <text x="313.8174" xml:space="preserve" y="262.1543" clip-path="url(#clipPath2)" font-family="sans-serif" stroke="none">courses</text>
    </g>
    <g fill="url(#linearGradient3)" text-rendering="geometricPrecision" shape-rendering="geometricPrecision" transform="matrix(1,0,0,1,-64,-81)" stroke="url(#linearGradient3)">
      <path d="M263 448.6 L411 448.6 L411 488.6 L263 488.6 Z" stroke="none" clip-path="url(#clipPath2)"/>
    </g>
    <g text-rendering="geometricPrecision" stroke-miterlimit="1.45" shape-rendering="geometricPrecision" transform="matrix(1,0,0,1,-64,-81)" stroke-linecap="butt">
      <path fill="none" d="M263 448.6 L411 448.6 L411 488.6 L263 488.6 Z" clip-path="url(#clipPath2)"/>
      <text x="314.3477" xml:space="preserve" y="472.7543" clip-path="url(#clipPath2)" font-family="sans-serif" stroke="none">qr code</text>
    </g>
    <g fill="url(#linearGradient4)" text-rendering="geometricPrecision" shape-rendering="geometricPrecision" transform="matrix(1,0,0,1,-64,-81)" stroke="url(#linearGradient4)">
      <path d="M441 448.6 L589 448.6 L589 488.6 L441 488.6 Z" stroke="none" clip-path="url(#clipPath2)"/>
    </g>
    <g text-rendering="geometricPrecision" stroke-miterlimit="1.45" shape-rendering="geometricPrecision" transform="matrix(1,0,0,1,-64,-81)" stroke-linecap="butt">
      <path fill="none" d="M441 448.6 L589 448.6 L589 488.6 L441 488.6 Z" clip-path="url(#clipPath2)"/>
      <text x="474.2715" xml:space="preserve" y="472.7543" clip-path="url(#clipPath2)" font-family="sans-serif" stroke="none">invitation link</text>
    </g>
    <g fill="url(#linearGradient5)" text-rendering="geometricPrecision" shape-rendering="geometricPrecision" transform="matrix(1,0,0,1,-64,-81)" stroke="url(#linearGradient5)">
      <path d="M619 448.6 L767 448.6 L767 488.6 L619 488.6 Z" stroke="none" clip-path="url(#clipPath2)"/>
    </g>
    <g text-rendering="geometricPrecision" stroke-miterlimit="1.45" shape-rendering="geometricPrecision" transform="matrix(1,0,0,1,-64,-81)" stroke-linecap="butt">
      <path fill="none" d="M619 448.6 L767 448.6 L767 488.6 L619 488.6 Z" clip-path="url(#clipPath2)"/>
      <text x="662.001" xml:space="preserve" y="472.7543" clip-path="url(#clipPath2)" font-family="sans-serif" stroke="none">plain code</text>
    </g>
    <g fill="url(#linearGradient6)" text-rendering="geometricPrecision" shape-rendering="geometricPrecision" transform="matrix(1,0,0,1,-64,-81)" stroke="url(#linearGradient6)">
      <path d="M515 293.4 L555 313.4 L515 333.4 L475 313.4 Z" stroke="none" clip-path="url(#clipPath2)"/>
    </g>
    <g text-rendering="geometricPrecision" stroke-miterlimit="1.45" shape-rendering="geometricPrecision" transform="matrix(1,0,0,1,-64,-81)" stroke-linecap="butt">
      <path fill="none" d="M515 293.4 L555 313.4 L515 333.4 L475 313.4 Z" clip-path="url(#clipPath2)"/>
    </g>
    <g fill="url(#linearGradient7)" text-rendering="geometricPrecision" shape-rendering="geometricPrecision" transform="matrix(1,0,0,1,-64,-81)" stroke="url(#linearGradient7)">
      <path d="M337 585.4 L377 605.4 L337 625.4 L297 605.4 Z" stroke="none" clip-path="url(#clipPath2)"/>
    </g>
    <g text-rendering="geometricPrecision" stroke-miterlimit="1.45" shape-rendering="geometricPrecision" transform="matrix(1,0,0,1,-64,-81)" stroke-linecap="butt">
      <path fill="none" d="M337 585.4 L377 605.4 L337 625.4 L297 605.4 Z" clip-path="url(#clipPath2)"/>
    </g>
    <g fill="url(#linearGradient8)" text-rendering="geometricPrecision" shape-rendering="geometricPrecision" transform="matrix(1,0,0,1,-64,-81)" stroke="url(#linearGradient8)">
      <path d="M441 585.4 L589 585.4 L589 625.4 L441 625.4 Z" stroke="none" clip-path="url(#clipPath2)"/>
    </g>
    <g text-rendering="geometricPrecision" stroke-miterlimit="1.45" shape-rendering="geometricPrecision" transform="matrix(1,0,0,1,-64,-81)" stroke-linecap="butt">
      <path fill="none" d="M441 585.4 L589 585.4 L589 625.4 L441 625.4 Z" clip-path="url(#clipPath2)"/>
      <text x="470.0117" xml:space="preserve" y="609.5543" clip-path="url(#clipPath2)" font-family="sans-serif" stroke="none">create account</text>
    </g>
    <g fill="url(#linearGradient9)" text-rendering="geometricPrecision" shape-rendering="geometricPrecision" transform="matrix(1,0,0,1,-64,-81)" stroke="url(#linearGradient9)">
      <path d="M441 880.4 L589 880.4 L589 920.4 L441 920.4 Z" stroke="none" clip-path="url(#clipPath2)"/>
    </g>
    <g text-rendering="geometricPrecision" stroke-miterlimit="1.45" shape-rendering="geometricPrecision" transform="matrix(1,0,0,1,-64,-81)" stroke-linecap="butt">
      <path fill="none" d="M441 880.4 L589 880.4 L589 920.4 L441 920.4 Z" clip-path="url(#clipPath2)"/>
      <text x="458.8174" xml:space="preserve" y="904.5543" clip-path="url(#clipPath2)" font-family="sans-serif" stroke="none">add user to course</text>
    </g>
    <g fill="url(#linearGradient10)" text-rendering="geometricPrecision" shape-rendering="geometricPrecision" transform="matrix(1,0,0,1,-64,-81)" stroke="url(#linearGradient10)">
      <circle r="20" clip-path="url(#clipPath2)" cx="515" cy="116.6" stroke="none"/>
    </g>
    <g text-rendering="geometricPrecision" stroke-miterlimit="1.45" shape-rendering="geometricPrecision" transform="matrix(1,0,0,1,-64,-81)" stroke-linecap="butt">
      <circle fill="none" r="20" clip-path="url(#clipPath2)" cx="515" cy="116.6"/>
    </g>
    <g fill="url(#linearGradient11)" text-rendering="geometricPrecision" shape-rendering="geometricPrecision" transform="matrix(1,0,0,1,-64,-81)" stroke="url(#linearGradient11)">
      <rect x="475" y="987.15" clip-path="url(#clipPath2)" width="80" rx="20" ry="20" height="40" stroke="none"/>
    </g>
    <g text-rendering="geometricPrecision" stroke-miterlimit="1.45" shape-rendering="geometricPrecision" transform="matrix(1,0,0,1,-64,-81)" stroke-linecap="butt">
      <rect x="475" y="987.15" clip-path="url(#clipPath2)" fill="none" width="80" rx="20" ry="20" height="40"/>
    </g>
    <g fill="url(#linearGradient12)" text-rendering="geometricPrecision" shape-rendering="geometricPrecision" transform="matrix(1,0,0,1,-64,-81)" stroke="url(#linearGradient12)">
      <rect x="79.5" width="167" height="79" y="175.5" clip-path="url(#clipPath2)" stroke="none"/>
    </g>
    <g text-rendering="geometricPrecision" stroke-miterlimit="1.45" shape-rendering="geometricPrecision" transform="matrix(1,0,0,1,-64,-81)" stroke-linecap="butt">
      <path fill="none" d="M225.625 175.5 L246.5 175.5 L246.5 254.5 L225.625 254.5" clip-path="url(#clipPath2)"/>
      <text x="86.5146" xml:space="preserve" y="198.2012" clip-path="url(#clipPath2)" font-family="sans-serif" stroke="none">We call this course id</text>
      <text x="86.5146" xml:space="preserve" y="212.1699" clip-path="url(#clipPath2)" font-family="sans-serif" stroke="none">but this could also be</text>
      <text x="86.5146" xml:space="preserve" y="226.1387" clip-path="url(#clipPath2)" font-family="sans-serif" stroke="none">a "group" in a less formal</text>
      <text x="86.5146" xml:space="preserve" y="240.1074" clip-path="url(#clipPath2)" font-family="sans-serif" stroke="none">context.</text>
    </g>
    <g fill="url(#linearGradient13)" text-rendering="geometricPrecision" shape-rendering="geometricPrecision" transform="matrix(1,0,0,1,-64,-81)" stroke="url(#linearGradient13)">
      <rect x="725" width="95" height="40" y="358.2" clip-path="url(#clipPath2)" stroke="none"/>
    </g>
    <g text-rendering="geometricPrecision" stroke-miterlimit="1.45" shape-rendering="geometricPrecision" transform="matrix(1,0,0,1,-64,-81)" stroke-linecap="butt">
      <path fill="none" d="M725 393.2 L725 398.2 L820 398.2 L820 393.2" clip-path="url(#clipPath2)"/>
      <text x="741.6885" xml:space="preserve" y="375.3699" clip-path="url(#clipPath2)" font-family="sans-serif" stroke="none">Logged-in</text>
      <text x="741.6885" xml:space="preserve" y="389.3387" clip-path="url(#clipPath2)" font-family="sans-serif" stroke="none">users only</text>
    </g>
    <g text-rendering="geometricPrecision" shape-rendering="geometricPrecision" transform="matrix(1.4743,0,0,1.4423,678.2768,84.6924)">
      <g clip-path="url(#clipPath3)">
        <svg xmlns:svg="http://www.w3.org/2000/svg" xmlns:sodipodi="http://sodipodi.sourceforge.net/DTD/sodipodi-0.dtd" xmlns:inkscape="http://www.inkscape.org/namespaces/inkscape" xmlns:dc="http://purl.org/dc/elements/1.1/" xmlns:cc="http://web.resource.org/cc/" xmlns:rdf="http://www.w3.org/1999/02/22-rdf-syntax-ns#" opacity="1" writing-mode="lr-tb" stop-color="rgb(0, 0, 0)" shape-rendering="auto" glyph-orientation-horizontal="0deg" color-profile="auto" lighting-color="rgb(255, 255, 255)" color="rgb(0, 0, 0)" font-weight="400" alignment-baseline="auto" font-style="normal" version="1.0" color-interpolation-filters="linearrgb" text-anchor="start" stroke-linecap="butt" color-interpolation="srgb" font-variant="normal" word-spacing="normal" fill-opacity="1" text-rendering="auto" clip-path="none" text-decoration="none" letter-spacing="normal" glyph-orientation-vertical="auto" display="inline" font-size-adjust="none" overflow="visible" fill="rgb(0, 0, 0)" font-stretch="normal" stroke-dasharray="none" inkscape:version="0.45.1" id="svg1.svg2" stroke-miterlimit="4" stop-opacity="1" color-rendering="auto" font-size="12" sodipodi:docbase="C:\Daten\alberts\projects\yfx" pointer-events="visiblepainted" mask="none" direction="ltr" baseline-shift="baseline" sodipodi:docname="uml_actor.svg" enable-background="accumulate" fill-rule="nonzero" image-rendering="auto" stroke-dashoffset="0" inkscape:output_extension="org.inkscape.output.svg.inkscape" marker-end="none" width="41" clip="auto" cursor="auto" stroke="none" filter="none" visibility="visible" kerning="auto" stroke-width="1" font-family="&quot;Arial&quot;,&quot;Helvetica&quot;,sans-serif" flood-opacity="1" clip-rule="nonzero" src="none" height="68.997391" unicode-bidi="normal" sodipodi:version="0.32" stroke-linejoin="miter" stroke-opacity="1" flood-color="rgb(0, 0, 0)" dominant-baseline="auto" marker-start="none" marker-mid="none">
  <defs id="svg1.defs4">
            <linearGradient x1="441" gradientUnits="userSpaceOnUse" x2="589" y1="195" y2="235" id="linearGradient1" spreadMethod="reflect">
              <stop stop-opacity="1" stop-color="rgb(232,238,247)" offset="0%"/>
              <stop stop-opacity="1" stop-color="rgb(183,201,227)" offset="100%"/>
            </linearGradient>
            <linearGradient x1="307" gradientUnits="userSpaceOnUse" x2="367" y1="195" y2="235" id="linearGradient2" spreadMethod="reflect">
              <stop stop-opacity="1" stop-color="rgb(232,238,247)" offset="0%"/>
              <stop stop-opacity="1" stop-color="rgb(183,201,227)" offset="100%"/>
            </linearGradient>
            <linearGradient x1="263" gradientUnits="userSpaceOnUse" x2="411" y1="448.6" y2="488.6" id="linearGradient3" spreadMethod="reflect">
              <stop stop-opacity="1" stop-color="rgb(232,238,247)" offset="0%"/>
              <stop stop-opacity="1" stop-color="rgb(183,201,227)" offset="100%"/>
            </linearGradient>
            <linearGradient x1="441" gradientUnits="userSpaceOnUse" x2="589" y1="448.6" y2="488.6" id="linearGradient4" spreadMethod="reflect">
              <stop stop-opacity="1" stop-color="rgb(232,238,247)" offset="0%"/>
              <stop stop-opacity="1" stop-color="rgb(183,201,227)" offset="100%"/>
            </linearGradient>
            <linearGradient x1="619" gradientUnits="userSpaceOnUse" x2="767" y1="448.6" y2="488.6" id="linearGradient5" spreadMethod="reflect">
              <stop stop-opacity="1" stop-color="rgb(232,238,247)" offset="0%"/>
              <stop stop-opacity="1" stop-color="rgb(183,201,227)" offset="100%"/>
            </linearGradient>
            <linearGradient x1="475" gradientUnits="userSpaceOnUse" x2="555" y1="293.4" y2="333.4" id="linearGradient6" spreadMethod="reflect">
              <stop stop-opacity="1" stop-color="rgb(232,238,247)" offset="0%"/>
              <stop stop-opacity="1" stop-color="rgb(183,201,227)" offset="100%"/>
            </linearGradient>
            <linearGradient x1="297" gradientUnits="userSpaceOnUse" x2="377" y1="585.4" y2="625.4" id="linearGradient7" spreadMethod="reflect">
              <stop stop-opacity="1" stop-color="rgb(232,238,247)" offset="0%"/>
              <stop stop-opacity="1" stop-color="rgb(183,201,227)" offset="100%"/>
            </linearGradient>
            <linearGradient x1="441" gradientUnits="userSpaceOnUse" x2="589" y1="585.4" y2="625.4" id="linearGradient8" spreadMethod="reflect">
              <stop stop-opacity="1" stop-color="rgb(232,238,247)" offset="0%"/>
              <stop stop-opacity="1" stop-color="rgb(183,201,227)" offset="100%"/>
            </linearGradient>
            <linearGradient x1="441" gradientUnits="userSpaceOnUse" x2="589" y1="880.4" y2="920.4" id="linearGradient9" spreadMethod="reflect">
              <stop stop-opacity="1" stop-color="rgb(232,238,247)" offset="0%"/>
              <stop stop-opacity="1" stop-color="rgb(183,201,227)" offset="100%"/>
            </linearGradient>
            <linearGradient x1="475" gradientUnits="userSpaceOnUse" x2="555" y1="96.6" y2="136.6" id="linearGradient10" spreadMethod="reflect">
              <stop stop-opacity="1" stop-color="rgb(232,238,247)" offset="0%"/>
              <stop stop-opacity="1" stop-color="rgb(183,201,227)" offset="100%"/>
            </linearGradient>
            <linearGradient x1="475" gradientUnits="userSpaceOnUse" x2="555" y1="987.15" y2="1027.15" id="linearGradient11" spreadMethod="reflect">
              <stop stop-opacity="1" stop-color="rgb(232,238,247)" offset="0%"/>
              <stop stop-opacity="1" stop-color="rgb(183,201,227)" offset="100%"/>
            </linearGradient>
            <linearGradient x1="79.5" gradientUnits="userSpaceOnUse" x2="246.5" y1="175.5" y2="254.5" id="linearGradient12" spreadMethod="reflect">
              <stop stop-opacity="1" stop-color="rgb(232,238,247)" offset="0%"/>
              <stop stop-opacity="1" stop-color="rgb(183,201,227)" offset="100%"/>
            </linearGradient>
            <linearGradient x1="725" gradientUnits="userSpaceOnUse" x2="820" y1="358.2" y2="398.2" id="linearGradient13" spreadMethod="reflect">
              <stop stop-opacity="1" stop-color="rgb(232,238,247)" offset="0%"/>
              <stop stop-opacity="1" stop-color="rgb(183,201,227)" offset="100%"/>
            </linearGradient>
            <linearGradient x1="422.5" gradientUnits="userSpaceOnUse" x2="607.5" y1="661.7962" y2="713.7962" id="linearGradient14" spreadMethod="reflect">
              <stop stop-opacity="1" stop-color="rgb(232,238,247)" offset="0%"/>
              <stop stop-opacity="1" stop-color="rgb(183,201,227)" offset="100%"/>
            </linearGradient>
            <linearGradient x1="485" gradientUnits="userSpaceOnUse" x2="545" y1="787.4" y2="827.4" id="linearGradient15" spreadMethod="reflect">
              <stop stop-opacity="1" stop-color="rgb(232,238,247)" offset="0%"/>
              <stop stop-opacity="1" stop-color="rgb(183,201,227)" offset="100%"/>
            </linearGradient>
            <clipPath clipPathUnits="userSpaceOnUse" id="clipPath1">
              <path d="M0 0 L771 0 L771 962 L0 962 L0 0 Z"/>
            </clipPath>
            <clipPath clipPathUnits="userSpaceOnUse" id="clipPath2">
              <path d="M64 81 L835 81 L835 1043 L64 1043 L64 81 Z"/>
            </clipPath>
            <clipPath clipPathUnits="userSpaceOnUse" id="clipPath3">
              <path d="M-460.067 -58.7222 L62.893 -58.7222 L62.893 608.2888 L-460.067 608.2888 L-460.067 -58.7222 Z"/>
            </clipPath>
            <clipPath clipPathUnits="userSpaceOnUse" id="clipPath4">
              <path d="M-46.6505 -329.4094 L476.3095 -329.4094 L476.3095 337.6016 L-46.6505 337.6016 L-46.6505 -329.4094 Z"/>
            </clipPath>
          </defs>
  
  <metadata id="svg1.metadata7">
    
  </metadata>
  <g inkscape:groupmode="layer" id="svg1.layer1" transform="translate(-29.5,-42.959476)" inkscape:label="Ebene 1">
    <a id="svg1.a3142" transform="matrix(1.0873906,0,0,1,-4.4741999,0)">
      <path transform="translate(11.586889,5.2908993)" style="fill:none;fill-rule:evenodd;stroke:#000000;stroke-width:1px;stroke-linecap:butt;stroke-linejoin:miter;stroke-opacity:1" sodipodi:cx="38.509369" sodipodi:cy="47.36993" sodipodi:rx="8.5197716" id="svg1.path2160" d="M 47.02914 47.36993 A 8.5197716 9.2013531 0 1 1  29.989597,47.36993 A 8.5197716 9.2013531 0 1 1  47.02914 47.36993 z" sodipodi:ry="9.2013531" sodipodi:type="arc"/>
    </a>
    <path style="fill:none" sodipodi:cx="43.962021" sodipodi:cy="48.392303" d="M 47.71072 48.392303 A 3.7486994 0 0 1 1  40.213321,48.392303 A 3.7486994 0 0 1 1  47.71072 48.392303 z" id="svg1.path3134" sodipodi:rx="3.7486994" sodipodi:ry="0" sodipodi:type="arc"/>
    <path style="fill:none;fill-rule:evenodd;stroke:#000000;stroke-width:1.24319649px;stroke-linecap:butt;stroke-linejoin:miter;stroke-opacity:1" d="M 50,61.33709 C 50,91.363211 50,92.247838 50,92.247838" id="svg1.path3136"/>
    <path style="fill:none;fill-rule:evenodd;stroke:#000000;stroke-width:1px;stroke-linecap:butt;stroke-linejoin:miter;stroke-opacity:1" d="M 69.760668,72.362183 C 69.760668,72.362183 69.760668,72.362183 50.239332,72.362183 C 30.239332,72.362183 30.239332,72.362183 30.239332,72.362183 L 30.239332,72.362183" id="svg1.path3138"/>
    <path style="fill:none;fill-rule:evenodd;stroke:#000000;stroke-width:1px;stroke-linecap:butt;stroke-linejoin:miter;stroke-opacity:1" d="M 30,111.45687 C 30,111.45687 30,111.45687 50,92.013532 C 70,111.45687 70,111.45687 70,111.45687" id="svg1.path3140"/>
  </g>
</svg>
      </g>
    </g>
    <g font-size="13px" stroke-linecap="butt" transform="matrix(1,0,0,1,-64,-81)" text-rendering="geometricPrecision" font-family="sans-serif" shape-rendering="geometricPrecision" stroke-miterlimit="1.45">
      <text x="744.9879" xml:space="preserve" y="289.2967" clip-path="url(#clipPath2)" stroke="none">instructor</text>
    </g>
    <g text-rendering="geometricPrecision" shape-rendering="geometricPrecision" transform="matrix(1.4743,0,0,1.4423,68.7768,475.0924)">
      <g clip-path="url(#clipPath4)">
        <svg xmlns:svg="http://www.w3.org/2000/svg" xmlns:sodipodi="http://sodipodi.sourceforge.net/DTD/sodipodi-0.dtd" xmlns:inkscape="http://www.inkscape.org/namespaces/inkscape" xmlns:dc="http://purl.org/dc/elements/1.1/" xmlns:cc="http://web.resource.org/cc/" xmlns:rdf="http://www.w3.org/1999/02/22-rdf-syntax-ns#" opacity="1" writing-mode="lr-tb" stop-color="rgb(0, 0, 0)" shape-rendering="auto" glyph-orientation-horizontal="0deg" color-profile="auto" lighting-color="rgb(255, 255, 255)" color="rgb(0, 0, 0)" font-weight="400" alignment-baseline="auto" font-style="normal" version="1.0" color-interpolation-filters="linearrgb" text-anchor="start" stroke-linecap="butt" color-interpolation="srgb" font-variant="normal" word-spacing="normal" fill-opacity="1" text-rendering="auto" clip-path="none" text-decoration="none" letter-spacing="normal" glyph-orientation-vertical="auto" display="inline" font-size-adjust="none" overflow="visible" fill="rgb(0, 0, 0)" font-stretch="normal" stroke-dasharray="none" inkscape:version="0.45.1" id="svg2.svg2" stroke-miterlimit="4" stop-opacity="1" color-rendering="auto" font-size="12" sodipodi:docbase="C:\Daten\alberts\projects\yfx" pointer-events="visiblepainted" mask="none" direction="ltr" baseline-shift="baseline" sodipodi:docname="uml_actor.svg" enable-background="accumulate" fill-rule="nonzero" image-rendering="auto" stroke-dashoffset="0" inkscape:output_extension="org.inkscape.output.svg.inkscape" marker-end="none" width="41" clip="auto" cursor="auto" stroke="none" filter="none" visibility="visible" kerning="auto" stroke-width="1" font-family="&quot;Arial&quot;,&quot;Helvetica&quot;,sans-serif" flood-opacity="1" clip-rule="nonzero" src="none" height="68.997391" unicode-bidi="normal" sodipodi:version="0.32" stroke-linejoin="miter" stroke-opacity="1" flood-color="rgb(0, 0, 0)" dominant-baseline="auto" marker-start="none" marker-mid="none">
  <defs id="svg2.defs4"/>
  
  <metadata id="svg2.metadata7">
    
  </metadata>
  <g inkscape:groupmode="layer" id="svg2.layer1" transform="translate(-29.5,-42.959476)" inkscape:label="Ebene 1">
    <a id="svg2.a3142" transform="matrix(1.0873906,0,0,1,-4.4741999,0)">
      <path transform="translate(11.586889,5.2908993)" style="fill:none;fill-rule:evenodd;stroke:#000000;stroke-width:1px;stroke-linecap:butt;stroke-linejoin:miter;stroke-opacity:1" sodipodi:cx="38.509369" sodipodi:cy="47.36993" sodipodi:rx="8.5197716" id="svg2.path2160" d="M 47.02914 47.36993 A 8.5197716 9.2013531 0 1 1  29.989597,47.36993 A 8.5197716 9.2013531 0 1 1  47.02914 47.36993 z" sodipodi:ry="9.2013531" sodipodi:type="arc"/>
    </a>
    <path style="fill:none" sodipodi:cx="43.962021" sodipodi:cy="48.392303" d="M 47.71072 48.392303 A 3.7486994 0 0 1 1  40.213321,48.392303 A 3.7486994 0 0 1 1  47.71072 48.392303 z" id="svg2.path3134" sodipodi:rx="3.7486994" sodipodi:ry="0" sodipodi:type="arc"/>
    <path style="fill:none;fill-rule:evenodd;stroke:#000000;stroke-width:1.24319649px;stroke-linecap:butt;stroke-linejoin:miter;stroke-opacity:1" d="M 50,61.33709 C 50,91.363211 50,92.247838 50,92.247838" id="svg2.path3136"/>
    <path style="fill:none;fill-rule:evenodd;stroke:#000000;stroke-width:1px;stroke-linecap:butt;stroke-linejoin:miter;stroke-opacity:1" d="M 69.760668,72.362183 C 69.760668,72.362183 69.760668,72.362183 50.239332,72.362183 C 30.239332,72.362183 30.239332,72.362183 30.239332,72.362183 L 30.239332,72.362183" id="svg2.path3138"/>
    <path style="fill:none;fill-rule:evenodd;stroke:#000000;stroke-width:1px;stroke-linecap:butt;stroke-linejoin:miter;stroke-opacity:1" d="M 30,111.45687 C 30,111.45687 30,111.45687 50,92.013532 C 70,111.45687 70,111.45687 70,111.45687" id="svg2.path3140"/>
  </g>
</svg>
      </g>
    </g>
    <g font-size="13px" stroke-linecap="butt" transform="matrix(1,0,0,1,-64,-81)" text-rendering="geometricPrecision" font-family="sans-serif" shape-rendering="geometricPrecision" stroke-miterlimit="1.45">
      <text x="127.707" xml:space="preserve" y="673.4669" clip-path="url(#clipPath2)" stroke="none">participant</text>
    </g>
    <g fill="url(#linearGradient14)" text-rendering="geometricPrecision" shape-rendering="geometricPrecision" transform="matrix(1,0,0,1,-64,-81)" stroke="url(#linearGradient14)">
      <rect x="422.5" width="185" height="52" y="661.7962" clip-path="url(#clipPath2)" stroke="none"/>
    </g>
    <g text-rendering="geometricPrecision" stroke-miterlimit="1.45" shape-rendering="geometricPrecision" transform="matrix(1,0,0,1,-64,-81)" stroke-linecap="butt">
      <path fill="none" d="M422.5 668.2962 L422.5 661.7962 L607.5 661.7962 L607.5 668.2962" clip-path="url(#clipPath2)"/>
      <text x="448.0566" xml:space="preserve" y="677.9818" clip-path="url(#clipPath2)" font-family="sans-serif" stroke="none">on desktop show new </text>
      <text x="448.5547" xml:space="preserve" y="691.9505" clip-path="url(#clipPath2)" font-family="sans-serif" stroke="none">login code, on mobile </text>
      <text x="441.4561" xml:space="preserve" y="705.9193" clip-path="url(#clipPath2)" font-family="sans-serif" stroke="none">redirect to the app store</text>
    </g>
    <g fill="url(#linearGradient15)" text-rendering="geometricPrecision" shape-rendering="geometricPrecision" transform="matrix(1,0,0,1,-64,-81)" stroke="url(#linearGradient15)">
      <path d="M485 795.4 C486.8 787.4 543.2 787.4 545 795.4 L545 819.4 C543.2 827.4 486.8 827.4 485 819.4 Z" stroke="none" clip-path="url(#clipPath2)"/>
    </g>
    <g text-rendering="geometricPrecision" stroke-miterlimit="1.45" shape-rendering="geometricPrecision" transform="matrix(1,0,0,1,-64,-81)" stroke-linecap="butt">
      <path fill="none" d="M485 795.4 C486.8 787.4 543.2 787.4 545 795.4 L545 819.4 C543.2 827.4 486.8 827.4 485 819.4 Z" clip-path="url(#clipPath2)"/>
      <path fill="none" d="M545 795.4 C543.2 803.4 486.8 803.4 485 795.4" clip-path="url(#clipPath2)"/>
      <text x="491.8174" xml:space="preserve" y="778.5699" clip-path="url(#clipPath2)" font-family="sans-serif" stroke="none">courses</text>
    </g>
    <g text-rendering="geometricPrecision" stroke-miterlimit="1.45" shape-rendering="geometricPrecision" transform="matrix(1,0,0,1,-64,-81)" stroke-linecap="butt">
      <path fill="none" d="M367.0288 215 L432.9783 215" clip-path="url(#clipPath2)"/>
    </g>
    <g text-rendering="geometricPrecision" stroke-miterlimit="1.45" shape-rendering="geometricPrecision" transform="matrix(1,0,0,1,-64,-81)" stroke-linecap="butt">
      <path d="M440.9783 215 L428.9783 210 L431.9783 215 L428.9783 220 Z" stroke="none" clip-path="url(#clipPath2)"/>
      <text x="374" xml:space="preserve" y="209.7171" clip-path="url(#clipPath2)" font-family="sans-serif" stroke="none">course id</text>
      <path fill="none" d="M515 235.0356 L515 285.388" clip-path="url(#clipPath2)"/>
      <path d="M515 293.388 L520 281.388 L515 284.388 L510 281.388 Z" clip-path="url(#clipPath2)" stroke="none"/>
      <path fill="none" d="M474.9761 313.4 L337 313.4 L337 440.6317" clip-path="url(#clipPath2)"/>
      <path d="M337 448.6317 L342 436.6317 L337 439.6317 L332 436.6317 Z" clip-path="url(#clipPath2)" stroke="none"/>
      <text x="233.4438" xml:space="preserve" y="378.1621" clip-path="url(#clipPath2)" font-family="sans-serif" stroke="none">for smartphones</text>
      <path fill="none" d="M515 333.3683 L515 440.6256" clip-path="url(#clipPath2)"/>
      <path d="M515 448.6256 L520 436.6256 L515 439.6256 L510 436.6256 Z" clip-path="url(#clipPath2)" stroke="none"/>
      <text x="414.672" xml:space="preserve" y="369.4499" clip-path="url(#clipPath2)" font-family="sans-serif" stroke="none">for messages</text>
      <text x="396.628" xml:space="preserve" y="383.4187" clip-path="url(#clipPath2)" font-family="sans-serif" stroke="none">(email, messenger)</text>
      <path fill="none" d="M555.0239 313.4 L693 313.4 L693 440.6317" clip-path="url(#clipPath2)"/>
      <path d="M693 448.6317 L698 436.6317 L693 439.6317 L688 436.6317 Z" clip-path="url(#clipPath2)" stroke="none"/>
      <text x="602.6571" xml:space="preserve" y="376.3258" clip-path="url(#clipPath2)" font-family="sans-serif" stroke="none">for manual</text>
      <text x="619.8514" xml:space="preserve" y="390.2946" clip-path="url(#clipPath2)" font-family="sans-serif" stroke="none">input</text>
      <path fill="none" d="M337 488.6057 L337 577.4115" clip-path="url(#clipPath2)"/>
      <path d="M337 585.4115 L342 573.4115 L337 576.4115 L332 573.4115 Z" clip-path="url(#clipPath2)" stroke="none"/>
      <path fill="none" d="M515 488.6057 L515 537 L337 537 L337 577.3943" clip-path="url(#clipPath2)"/>
      <path d="M337 585.3943 L342 573.3943 L337 576.3943 L332 573.3943 Z" clip-path="url(#clipPath2)" stroke="none"/>
      <path fill="none" d="M377.0239 605.4 L432.9928 605.4" clip-path="url(#clipPath2)"/>
      <path d="M440.9928 605.4 L428.9928 600.4 L431.9928 605.4 L428.9928 610.4 Z" clip-path="url(#clipPath2)" stroke="none"/>
      <text x="379.0146" xml:space="preserve" y="579.5543" clip-path="url(#clipPath2)" font-family="sans-serif" stroke="none">no acount</text>
      <path fill="none" d="M693 488.6034 L693 900.4 L597.0073 900.4" clip-path="url(#clipPath2)"/>
      <path d="M589.0073 900.4 L601.0073 905.4 L598.0073 900.4 L601.0073 895.4 Z" clip-path="url(#clipPath2)" stroke="none"/>
      <path fill="none" d="M337 625.386 L337 900.4 L432.9927 900.4" clip-path="url(#clipPath2)"/>
      <path d="M440.9927 900.4 L428.9927 895.4 L431.9927 900.4 L428.9927 905.4 Z" clip-path="url(#clipPath2)" stroke="none"/>
      <text x="270.584" xml:space="preserve" y="643.5387" clip-path="url(#clipPath2)" font-family="sans-serif" stroke="none">has account</text>
      <path fill="none" d="M588.9941 605.4 L649.1655 605.4 L649.1655 900.4 L596.9941 900.4" clip-path="url(#clipPath2)"/>
      <path d="M588.9941 900.4 L600.9941 905.4 L597.9941 900.4 L600.9941 895.4 Z" clip-path="url(#clipPath2)" stroke="none"/>
      <path fill="none" d="M515 136.6355 L515 186.988" clip-path="url(#clipPath2)"/>
      <path d="M515 194.988 L520 182.988 L515 185.988 L510 182.988 Z" clip-path="url(#clipPath2)" stroke="none"/>
      <path fill="none" d="M515 920.3896 L515 979.1121" clip-path="url(#clipPath2)"/>
      <path d="M515 987.1121 L520 975.1121 L515 978.1121 L510 975.1121 Z" clip-path="url(#clipPath2)" stroke="none"/>
      <path fill="none" stroke-dasharray="6,2" d="M306.9663 215 L246.4766 215" clip-path="url(#clipPath2)"/>
      <path fill="none" stroke-dasharray="6,2" d="M754.8959 398.2178 L710.5593 448.6332" clip-path="url(#clipPath2)"/>
      <path fill="none" stroke-dasharray="6,2" d="M742.4814 215 L589.0037 215" clip-path="url(#clipPath2)"/>
      <path fill="none" stroke-dasharray="6,2" d="M193.0337 605.4 L296.9664 605.4" clip-path="url(#clipPath2)"/>
      <path fill="none" stroke-dasharray="6,2" d="M515 625.3956 L515 661.8061" clip-path="url(#clipPath2)"/>
      <path fill="none" d="M515 880.3741 L515 833.3941" clip-path="url(#clipPath2)"/>
      <path d="M515 825.3941 L510 837.3941 L515 834.3941 L520 837.3941 Z" clip-path="url(#clipPath2)" stroke="none"/>
      <text x="524.5303" xml:space="preserve" y="858.0543" clip-path="url(#clipPath2)" font-family="sans-serif" stroke="none">user id</text>
    </g>
  </g>
</svg>
